<?xml version="1.0" standalone="no"?>
<!DOCTYPE svg PUBLIC "-//W3C//DTD SVG 20010904//EN"
 "http://www.w3.org/TR/2001/REC-SVG-20010904/DTD/svg10.dtd">
<svg version="1.0" xmlns="http://www.w3.org/2000/svg"
 width="439.000000pt" height="439.000000pt" viewBox="0 0 439.000000 439.000000"
 preserveAspectRatio="xMidYMid meet">
<metadata>
Created by potrace 1.11, written by Peter Selinger 2001-2013
</metadata>
<g transform="translate(0.000000,439.000000) scale(0.100000,-0.100000)"
fill="#000000" stroke="none">
<path d="M1697 3904 c-1 -1 -33 -4 -72 -8 -328 -28 -670 -160 -945 -365 -152
-113 -351 -333 -443 -489 -97 -165 -181 -382 -203 -522 -3 -19 -7 -37 -9 -41
-17 -27 -26 -360 -12 -476 28 -233 121 -488 253 -691 31 -48 59 -89 63 -92 3
-3 19 -23 35 -45 85 -116 278 -289 431 -387 176 -113 428 -218 605 -252 14 -3
49 -9 79 -15 128 -26 410 -35 545 -18 447 55 843 247 1135 551 50 53 55 56 75
43 11 -8 170 -107 351 -222 182 -114 340 -213 352 -221 12 -8 30 -14 39 -14 9
0 46 -18 82 -41 42 -27 68 -37 74 -31 11 11 58 86 109 172 18 30 35 57 39 60
18 15 102 164 94 167 -5 2 -61 37 -124 78 -63 40 -171 108 -240 151 -69 42
-176 110 -238 151 -62 40 -114 73 -117 73 -2 0 -42 25 -89 55 l-85 55 28 68
c132 320 152 702 55 1042 -125 439 -433 814 -857 1045 -73 39 -277 127 -277
119 0 -2 -8 0 -18 5 -20 10 -146 46 -195 55 -15 2 -35 7 -45 10 -9 2 -37 7
-62 10 -25 3 -67 8 -95 12 -48 6 -312 13 -318 8z"/>
</g>
</svg>
